<?xml version="1.0" standalone="no"?>
<!DOCTYPE svg PUBLIC "-//W3C//DTD SVG 20010904//EN"
 "http://www.w3.org/TR/2001/REC-SVG-20010904/DTD/svg10.dtd">
<svg version="1.0" xmlns="http://www.w3.org/2000/svg"
 width="500.000000pt" height="500.000000pt" viewBox="0 0 500.000000 500.000000"
 preserveAspectRatio="xMidYMid meet">
<g transform="translate(0.000000,500.000000) scale(0.100000,-0.100000)"
fill="#000000" stroke="none">
<path d="M1216 3903 c-49 -77 -368 -635 -372 -651 -3 -10 86 -173 201 -372
l205 -355 -417 -3 -418 -3 -200 -347 c-115 -199 -200 -358 -200 -372 0 -14 86
-173 199 -368 l198 -342 422 0 423 0 205 355 206 356 203 -355 204 -355 425 0
425 0 204 355 203 355 205 -356 206 -355 422 0 423 0 202 350 c128 221 200
357 197 369 -4 17 -373 664 -794 1391 -110 190 -251 434 -314 542 l-114 198
-431 0 -432 0 -198 -345 c-110 -189 -201 -344 -204 -344 -3 -1 -94 155 -203
344 l-199 345 -429 0 -429 0 -24 -37z"/>
</g>
</svg>
